<svg width="36.000000" height="36.000000" viewBox="0 0 36 36" fill="none" xmlns="http://www.w3.org/2000/svg" xmlns:xlink="http://www.w3.org/1999/xlink">
	<desc>
			Created with Pixso.
	</desc>
	<defs>
		<clipPath id="clip1_1">
			<rect id="pluginIcon" width="36.000000" height="36.000000" fill="white" fill-opacity="0"/>
		</clipPath>
	</defs>
	<g clip-path="url(#clip1_1)">
		<path id="path" d="M22.76 21.75L17.49 27.02L22.76 32.29L24.33 30.72L20.63 27.02L24.33 23.32L22.76 21.75ZM30.5 32.29L35.77 27.02L30.5 21.75L28.93 23.32L32.63 27.02L28.93 30.72L30.5 32.29ZM16.82 11.32L16.82 17.6L9.3 25.12L10.87 26.69L19.06 18.5L19.06 11.32L16.82 11.32Z" fill="#1AFA29" fill-opacity="1.000000" fill-rule="nonzero"/>
		<path id="path" d="M18.41 36.94L18.41 34.64C15.99 34.64 13.58 34.06 11.39 33.03L12.43 31.3L10.47 30.15L9.43 31.88C7.71 30.73 6.33 29.23 5.17 27.62L6.79 26.58L5.64 24.63L3.91 25.66C2.99 23.82 2.53 21.86 2.3 19.79L6.9 19.79L6.9 17.49L2.41 17.49C2.53 15.42 3.1 13.46 4.02 11.62L5.75 12.66L6.9 10.7L5.06 9.55C6.21 7.82 7.71 6.44 9.32 5.29L10.35 6.9L12.31 5.75L11.39 4.02C13.23 3.1 15.19 2.64 17.26 2.41L17.26 7.02L19.56 7.02L19.56 2.53C21.63 2.64 23.59 3.22 25.43 4.14L24.4 5.87L26.35 7.02L27.39 5.29C29.12 6.44 30.5 7.94 31.65 9.55L30.04 10.47L31.19 12.43L32.92 11.39C33.95 13.58 34.53 15.99 34.53 18.41L36.83 18.41C36.83 8.28 28.54 0 18.41 0C8.28 0 0 8.4 0 18.53C0 28.66 8.28 36.94 18.41 36.94Z" fill="#1AFA29" fill-opacity="1.000000" fill-rule="nonzero"/>
	</g>
</svg>
