<?xml version="1.0" standalone="no"?><!DOCTYPE svg PUBLIC "-//W3C//DTD SVG 1.1//EN" "http://www.w3.org/Graphics/SVG/1.1/DTD/svg11.dtd"><svg t="1718188396478" class="icon" viewBox="0 0 1024 1024" version="1.1" xmlns="http://www.w3.org/2000/svg" p-id="1206" width="13" height="13" xmlns:xlink="http://www.w3.org/1999/xlink"><path d="M647.576324 618.866044L497.64486 768.797508l149.931464 149.931464 44.660436-44.660436-105.271028-105.271028 105.271028-105.271028zM867.688474 918.728972l149.931464-149.931464-149.931464-149.931464-44.660437 44.660436 105.271028 105.271028-105.271028 105.271028zM478.504673 322.193146v178.641745l-213.732087 213.732087 44.660436 44.660436 232.872274-232.872274V322.193146z" fill="#f4ea2a" p-id="1207"></path><path d="M510.404984 1024v-63.800623c-66.990654 0-133.981308-15.950156-194.5919-44.660436l28.71028-47.850467-54.230529-31.900312-28.71028 47.850467c-47.850467-31.900312-86.130841-73.370717-118.031153-118.031152l44.660436-28.710281-31.900312-54.230529-47.850467 28.71028c-25.520249-51.040498-38.280374-105.271028-44.660436-162.691589h127.601246v-63.800623H66.990654c3.190031-57.420561 19.140187-111.65109 44.660436-162.691589l47.850468 28.710281 31.900311-54.23053-51.040498-31.900311c31.900312-47.850467 73.370717-86.130841 118.031152-118.031153L287.102804 191.401869l54.230529-31.900311-25.520249-47.850468c51.040498-25.520249 105.271028-38.280374 162.691589-44.660436v127.601246h63.800623V70.180685c57.420561 3.190031 111.65109 19.140187 162.691589 44.660436L676.286604 162.691589l54.23053 31.900311 28.71028-47.850467c47.850467 31.900312 86.130841 73.370717 118.031153 118.031153l-44.660436 25.520249 31.900311 54.230529 47.850468-28.71028c28.71028 60.610592 44.660436 127.601246 44.660436 194.5919h63.800623c0-280.722741-229.682243-510.404984-510.404985-510.404984S0 232.872274 0 513.595016s229.682243 510.404984 510.404984 510.404984z" fill="#f4ea2a" p-id="1208"></path></svg>